<mxfile host="app.diagrams.net" agent="Mozilla/5.0 (Windows NT 10.0; Win64; x64) AppleWebKit/537.36 (KHTML, like Gecko) Chrome/131.0.0.0 Safari/537.36" version="25.0.1" pages="2">
  <diagram name="Лобараторная-1" id="w8Wy2rTWRGyKnFYKGSb-">
    <mxGraphModel dx="5027" dy="3289" grid="1" gridSize="10" guides="1" tooltips="1" connect="1" arrows="1" fold="1" page="1" pageScale="1" pageWidth="827" pageHeight="1169" math="0" shadow="0">
      <root>
        <mxCell id="0" />
        <mxCell id="1" parent="0" />
        <mxCell id="CFzxhWx38RaiSqSo_Ngo-1" value="&lt;b&gt;&lt;span style=&quot;font-size:12.0pt;line-height:107%;&lt;br/&gt;font-family:&amp;quot;Times New Roman&amp;quot;,serif;mso-fareast-font-family:Calibri;mso-fareast-theme-font:&lt;br/&gt;minor-latin;mso-ansi-language:RU;mso-fareast-language:EN-US;mso-bidi-language:&lt;br/&gt;AR-SA;mso-bidi-font-style:italic&quot;&gt;Система управления логистикой интернет-магазина&lt;/span&gt;&lt;/b&gt;" style="swimlane;whiteSpace=wrap;html=1;" vertex="1" parent="1">
          <mxGeometry x="-800" y="-30" width="2023" height="1490" as="geometry" />
        </mxCell>
        <mxCell id="CFzxhWx38RaiSqSo_Ngo-2" value="Клиент" style="swimlane;whiteSpace=wrap;html=1;" vertex="1" parent="CFzxhWx38RaiSqSo_Ngo-1">
          <mxGeometry y="24" width="320" height="1466" as="geometry" />
        </mxCell>
        <mxCell id="CFzxhWx38RaiSqSo_Ngo-3" style="edgeStyle=orthogonalEdgeStyle;rounded=0;orthogonalLoop=1;jettySize=auto;html=1;exitX=0.5;exitY=1;exitDx=0;exitDy=0;entryX=0.5;entryY=0;entryDx=0;entryDy=0;" edge="1" parent="CFzxhWx38RaiSqSo_Ngo-2" source="CFzxhWx38RaiSqSo_Ngo-5" target="CFzxhWx38RaiSqSo_Ngo-6">
          <mxGeometry relative="1" as="geometry" />
        </mxCell>
        <mxCell id="CFzxhWx38RaiSqSo_Ngo-4" value="&lt;span style=&quot;line-height: 107%; font-family: &amp;quot;Times New Roman&amp;quot;, serif;&quot;&gt;&lt;font style=&quot;font-size: 12px;&quot;&gt;Клиент создает заказ через сайт&amp;nbsp;&lt;/font&gt;&lt;/span&gt;" style="edgeLabel;html=1;align=center;verticalAlign=middle;resizable=0;points=[];" vertex="1" connectable="0" parent="CFzxhWx38RaiSqSo_Ngo-3">
          <mxGeometry x="-0.1259" relative="1" as="geometry">
            <mxPoint as="offset" />
          </mxGeometry>
        </mxCell>
        <mxCell id="CFzxhWx38RaiSqSo_Ngo-5" value="" style="shape=ellipse;html=1;fillColor=strokeColor;fontSize=18;fontColor=#ffffff;" vertex="1" parent="CFzxhWx38RaiSqSo_Ngo-2">
          <mxGeometry x="100" y="36" width="40" height="40" as="geometry" />
        </mxCell>
        <mxCell id="CFzxhWx38RaiSqSo_Ngo-6" value="Формирование&amp;nbsp; заказа" style="shape=rect;rounded=1;html=1;whiteSpace=wrap;align=center;" vertex="1" parent="CFzxhWx38RaiSqSo_Ngo-2">
          <mxGeometry x="70" y="136" width="100" height="40" as="geometry" />
        </mxCell>
        <mxCell id="CFzxhWx38RaiSqSo_Ngo-7" value="" style="html=1;points=[[0,0,0,0,5],[0,1,0,0,-5],[1,0,0,0,5],[1,1,0,0,-5]];perimeter=orthogonalPerimeter;outlineConnect=0;targetShapes=umlLifeline;portConstraint=eastwest;newEdgeStyle={&quot;curved&quot;:0,&quot;rounded&quot;:0};rotation=90;fillColor=#000000;" vertex="1" parent="CFzxhWx38RaiSqSo_Ngo-2">
          <mxGeometry x="100" y="396" width="10" height="80" as="geometry" />
        </mxCell>
        <mxCell id="CFzxhWx38RaiSqSo_Ngo-8" value="&lt;font face=&quot;Times New Roman, serif&quot;&gt;Онлайн оплата&lt;/font&gt;" style="shape=rect;rounded=1;html=1;whiteSpace=wrap;align=center;" vertex="1" parent="CFzxhWx38RaiSqSo_Ngo-2">
          <mxGeometry x="20" y="516" width="100" height="40" as="geometry" />
        </mxCell>
        <mxCell id="CFzxhWx38RaiSqSo_Ngo-9" style="edgeStyle=orthogonalEdgeStyle;rounded=0;orthogonalLoop=1;jettySize=auto;html=1;curved=0;exitX=1;exitY=1;exitDx=0;exitDy=-5;exitPerimeter=0;entryX=0.5;entryY=0;entryDx=0;entryDy=0;" edge="1" parent="CFzxhWx38RaiSqSo_Ngo-2" source="CFzxhWx38RaiSqSo_Ngo-7" target="CFzxhWx38RaiSqSo_Ngo-8">
          <mxGeometry relative="1" as="geometry" />
        </mxCell>
        <mxCell id="CFzxhWx38RaiSqSo_Ngo-10" value="&lt;font face=&quot;Times New Roman, serif&quot;&gt;при доставке&lt;/font&gt;" style="shape=rect;rounded=1;html=1;whiteSpace=wrap;align=center;" vertex="1" parent="CFzxhWx38RaiSqSo_Ngo-2">
          <mxGeometry x="190" y="486" width="100" height="40" as="geometry" />
        </mxCell>
        <mxCell id="CFzxhWx38RaiSqSo_Ngo-11" style="edgeStyle=orthogonalEdgeStyle;rounded=0;orthogonalLoop=1;jettySize=auto;html=1;curved=0;exitX=1;exitY=0;exitDx=0;exitDy=5;exitPerimeter=0;entryX=0.5;entryY=0;entryDx=0;entryDy=0;" edge="1" parent="CFzxhWx38RaiSqSo_Ngo-2" source="CFzxhWx38RaiSqSo_Ngo-7" target="CFzxhWx38RaiSqSo_Ngo-10">
          <mxGeometry relative="1" as="geometry" />
        </mxCell>
        <mxCell id="CFzxhWx38RaiSqSo_Ngo-12" value="&lt;font face=&quot;Times New Roman, serif&quot;&gt;Отправить уведомление клиенту&lt;/font&gt;" style="shape=rect;rounded=1;html=1;whiteSpace=wrap;align=center;" vertex="1" parent="CFzxhWx38RaiSqSo_Ngo-2">
          <mxGeometry x="80" y="716" width="100" height="40" as="geometry" />
        </mxCell>
        <mxCell id="CFzxhWx38RaiSqSo_Ngo-13" style="edgeStyle=orthogonalEdgeStyle;rounded=0;orthogonalLoop=1;jettySize=auto;html=1;entryX=0;entryY=1;entryDx=0;entryDy=-5;entryPerimeter=0;exitX=0;exitY=0.5;exitDx=0;exitDy=0;" edge="1" parent="CFzxhWx38RaiSqSo_Ngo-2" source="CFzxhWx38RaiSqSo_Ngo-12" target="CFzxhWx38RaiSqSo_Ngo-7">
          <mxGeometry relative="1" as="geometry">
            <mxPoint x="60" y="736" as="sourcePoint" />
            <Array as="points">
              <mxPoint x="10" y="736" />
              <mxPoint x="10" y="411" />
              <mxPoint x="70" y="411" />
            </Array>
          </mxGeometry>
        </mxCell>
        <mxCell id="CFzxhWx38RaiSqSo_Ngo-14" value="&lt;font face=&quot;Times New Roman, serif&quot;&gt;Отправить уведомление клиенту&lt;/font&gt;" style="shape=rect;rounded=1;html=1;whiteSpace=wrap;align=center;" vertex="1" parent="CFzxhWx38RaiSqSo_Ngo-2">
          <mxGeometry x="90" y="996" width="100" height="40" as="geometry" />
        </mxCell>
        <mxCell id="CFzxhWx38RaiSqSo_Ngo-15" value="" style="shape=mxgraph.sysml.actFinal;html=1;verticalLabelPosition=bottom;labelBackgroundColor=#ffffff;verticalAlign=top;" vertex="1" parent="CFzxhWx38RaiSqSo_Ngo-2">
          <mxGeometry x="120" y="1175" width="40" height="40" as="geometry" />
        </mxCell>
        <mxCell id="CFzxhWx38RaiSqSo_Ngo-16" style="edgeStyle=orthogonalEdgeStyle;rounded=0;orthogonalLoop=1;jettySize=auto;html=1;entryX=0.5;entryY=0;entryDx=0;entryDy=0;entryPerimeter=0;" edge="1" parent="CFzxhWx38RaiSqSo_Ngo-2" source="CFzxhWx38RaiSqSo_Ngo-14" target="CFzxhWx38RaiSqSo_Ngo-15">
          <mxGeometry relative="1" as="geometry" />
        </mxCell>
        <mxCell id="CFzxhWx38RaiSqSo_Ngo-17" value="&lt;font face=&quot;Times New Roman, serif&quot;&gt;&lt;span style=&quot;font-size: 11px;&quot;&gt;Клиент подверждает получение&lt;/span&gt;&lt;/font&gt;" style="shape=rect;rounded=1;html=1;whiteSpace=wrap;align=center;" vertex="1" parent="CFzxhWx38RaiSqSo_Ngo-2">
          <mxGeometry x="110" y="1296" width="100" height="40" as="geometry" />
        </mxCell>
        <mxCell id="CFzxhWx38RaiSqSo_Ngo-18" value="&lt;span style=&quot;font-size:12.0pt;line-height:107%;&lt;br/&gt;font-family:&amp;quot;Times New Roman&amp;quot;,serif;mso-fareast-font-family:Calibri;mso-fareast-theme-font:&lt;br/&gt;minor-latin;mso-ansi-language:RU;mso-fareast-language:EN-US;mso-bidi-language:&lt;br/&gt;AR-SA;mso-bidi-font-style:italic&quot;&gt;Система&lt;/span&gt;" style="swimlane;whiteSpace=wrap;html=1;" vertex="1" parent="CFzxhWx38RaiSqSo_Ngo-1">
          <mxGeometry x="320" y="24" width="460" height="1466" as="geometry" />
        </mxCell>
        <mxCell id="CFzxhWx38RaiSqSo_Ngo-19" value="&lt;span style=&quot;font-family: &amp;quot;Times New Roman&amp;quot;, serif; font-size: 11px; text-wrap-mode: nowrap; background-color: rgb(255, 255, 255);&quot;&gt;Система&lt;/span&gt;&lt;div&gt;&lt;span style=&quot;font-family: &amp;quot;Times New Roman&amp;quot;, serif; font-size: 11px; text-wrap-mode: nowrap; background-color: rgb(255, 255, 255);&quot;&gt;&amp;nbsp;проверяет&amp;nbsp;&lt;/span&gt;&lt;/div&gt;&lt;div&gt;&lt;span style=&quot;font-family: &amp;quot;Times New Roman&amp;quot;, serif; font-size: 11px; text-wrap-mode: nowrap; background-color: rgb(255, 255, 255);&quot;&gt;наличие&amp;nbsp;&lt;/span&gt;&lt;/div&gt;&lt;div&gt;&lt;span style=&quot;font-family: &amp;quot;Times New Roman&amp;quot;, serif; font-size: 11px; text-wrap-mode: nowrap; background-color: rgb(255, 255, 255);&quot;&gt;товаров&amp;nbsp;&lt;/span&gt;&lt;/div&gt;" style="rhombus;whiteSpace=wrap;html=1;align=center;" vertex="1" parent="CFzxhWx38RaiSqSo_Ngo-18">
          <mxGeometry x="147" y="186" width="97" height="100" as="geometry" />
        </mxCell>
        <mxCell id="CFzxhWx38RaiSqSo_Ngo-20" value="&lt;div style=&quot;&quot;&gt;&lt;span style=&quot;font-size: 11px; background-color: initial;&quot;&gt;Отправить уведомление клиенту&lt;/span&gt;&lt;/div&gt;" style="shape=rect;rounded=1;html=1;whiteSpace=wrap;align=center;" vertex="1" parent="CFzxhWx38RaiSqSo_Ngo-18">
          <mxGeometry x="7" y="286" width="100" height="50" as="geometry" />
        </mxCell>
        <mxCell id="CFzxhWx38RaiSqSo_Ngo-21" style="edgeStyle=orthogonalEdgeStyle;rounded=0;orthogonalLoop=1;jettySize=auto;html=1;entryX=0.5;entryY=0;entryDx=0;entryDy=0;" edge="1" parent="CFzxhWx38RaiSqSo_Ngo-18" source="CFzxhWx38RaiSqSo_Ngo-19" target="CFzxhWx38RaiSqSo_Ngo-20">
          <mxGeometry relative="1" as="geometry">
            <mxPoint x="-100" y="276" as="targetPoint" />
          </mxGeometry>
        </mxCell>
        <mxCell id="CFzxhWx38RaiSqSo_Ngo-22" value="&lt;span style=&quot;line-height: 107%; font-family: &amp;quot;Times New Roman&amp;quot;, serif;&quot;&gt;&lt;font&gt;товары не в наличии&lt;/font&gt;&lt;/span&gt;" style="edgeLabel;html=1;align=center;verticalAlign=middle;resizable=0;points=[];" vertex="1" connectable="0" parent="CFzxhWx38RaiSqSo_Ngo-21">
          <mxGeometry x="-0.1968" y="-2" relative="1" as="geometry">
            <mxPoint as="offset" />
          </mxGeometry>
        </mxCell>
        <mxCell id="CFzxhWx38RaiSqSo_Ngo-23" value="&lt;span style=&quot;line-height: 107%; font-family: &amp;quot;Times New Roman&amp;quot;, serif;&quot;&gt;&lt;font&gt;&amp;nbsp;заказ&lt;br/&gt;подтверждается&lt;/font&gt;&lt;/span&gt;" style="shape=rect;rounded=1;html=1;whiteSpace=wrap;align=center;" vertex="1" parent="CFzxhWx38RaiSqSo_Ngo-18">
          <mxGeometry x="300" y="326" width="100" height="40" as="geometry" />
        </mxCell>
        <mxCell id="CFzxhWx38RaiSqSo_Ngo-24" style="edgeStyle=orthogonalEdgeStyle;rounded=0;orthogonalLoop=1;jettySize=auto;html=1;entryX=0.574;entryY=-0.015;entryDx=0;entryDy=0;entryPerimeter=0;" edge="1" parent="CFzxhWx38RaiSqSo_Ngo-18" source="CFzxhWx38RaiSqSo_Ngo-19" target="CFzxhWx38RaiSqSo_Ngo-23">
          <mxGeometry relative="1" as="geometry" />
        </mxCell>
        <mxCell id="CFzxhWx38RaiSqSo_Ngo-25" value="товары в наличии" style="edgeLabel;html=1;align=center;verticalAlign=middle;resizable=0;points=[];" vertex="1" connectable="0" parent="CFzxhWx38RaiSqSo_Ngo-24">
          <mxGeometry x="-0.2844" y="2" relative="1" as="geometry">
            <mxPoint as="offset" />
          </mxGeometry>
        </mxCell>
        <mxCell id="CFzxhWx38RaiSqSo_Ngo-26" style="edgeStyle=orthogonalEdgeStyle;rounded=0;orthogonalLoop=1;jettySize=auto;html=1;" edge="1" parent="CFzxhWx38RaiSqSo_Ngo-18" source="CFzxhWx38RaiSqSo_Ngo-27">
          <mxGeometry relative="1" as="geometry">
            <mxPoint x="190.00000000000045" y="1376.0000000000005" as="targetPoint" />
          </mxGeometry>
        </mxCell>
        <mxCell id="CFzxhWx38RaiSqSo_Ngo-27" value="&lt;span style=&quot;line-height: 107%; font-family: &amp;quot;Times New Roman&amp;quot;, serif;&quot;&gt;&lt;font&gt;завершает заказ и отправляет электронный чек&lt;/font&gt;&lt;/span&gt;" style="shape=rect;rounded=1;html=1;whiteSpace=wrap;align=center;" vertex="1" parent="CFzxhWx38RaiSqSo_Ngo-18">
          <mxGeometry x="140" y="1296" width="100" height="40" as="geometry" />
        </mxCell>
        <mxCell id="CFzxhWx38RaiSqSo_Ngo-28" value="" style="shape=mxgraph.sysml.actFinal;html=1;verticalLabelPosition=bottom;labelBackgroundColor=#ffffff;verticalAlign=top;" vertex="1" parent="CFzxhWx38RaiSqSo_Ngo-18">
          <mxGeometry x="170" y="1376" width="40" height="40" as="geometry" />
        </mxCell>
        <mxCell id="CFzxhWx38RaiSqSo_Ngo-29" value="&lt;span style=&quot;font-size: 16px;&quot;&gt;Платежный шлюз&lt;/span&gt;" style="swimlane;whiteSpace=wrap;html=1;startSize=23;" vertex="1" parent="CFzxhWx38RaiSqSo_Ngo-1">
          <mxGeometry x="780" y="24" width="350" height="1466" as="geometry" />
        </mxCell>
        <mxCell id="CFzxhWx38RaiSqSo_Ngo-30" value="Проверка оплаты" style="rhombus;whiteSpace=wrap;html=1;" vertex="1" parent="CFzxhWx38RaiSqSo_Ngo-29">
          <mxGeometry x="140" y="576" width="80" height="80" as="geometry" />
        </mxCell>
        <mxCell id="CFzxhWx38RaiSqSo_Ngo-31" value="&lt;span style=&quot;font-size:12.0pt;line-height:107%;&amp;lt;br/&amp;gt;font-family:&amp;quot;Times New Roman&amp;quot;,serif;mso-fareast-font-family:Calibri;mso-fareast-theme-font:&amp;lt;br/&amp;gt;minor-latin;mso-ansi-language:RU;mso-fareast-language:EN-US;mso-bidi-language:&amp;lt;br/&amp;gt;AR-SA;mso-bidi-font-style:italic&quot;&gt;Склад&lt;/span&gt;" style="swimlane;whiteSpace=wrap;html=1;startSize=23;" vertex="1" parent="CFzxhWx38RaiSqSo_Ngo-1">
          <mxGeometry x="1130" y="24" width="470" height="1466" as="geometry" />
        </mxCell>
        <mxCell id="CFzxhWx38RaiSqSo_Ngo-32" value="&lt;span style=&quot;line-height: 107%; font-family: &amp;quot;Times New Roman&amp;quot;, serif;&quot; lang=&quot;EN-US&quot;&gt;&lt;font&gt;Склад начинает сборку&lt;br/&gt;заказа&lt;/font&gt;&lt;/span&gt;" style="shape=rect;rounded=1;html=1;whiteSpace=wrap;align=center;" vertex="1" parent="CFzxhWx38RaiSqSo_Ngo-31">
          <mxGeometry x="34" y="656" width="100" height="40" as="geometry" />
        </mxCell>
        <mxCell id="CFzxhWx38RaiSqSo_Ngo-33" value="Выбор доставки" style="rhombus;whiteSpace=wrap;html=1;" vertex="1" parent="CFzxhWx38RaiSqSo_Ngo-31">
          <mxGeometry x="240" y="766" width="80" height="80" as="geometry" />
        </mxCell>
        <mxCell id="CFzxhWx38RaiSqSo_Ngo-34" style="edgeStyle=orthogonalEdgeStyle;rounded=0;orthogonalLoop=1;jettySize=auto;html=1;entryX=0.5;entryY=0;entryDx=0;entryDy=0;" edge="1" parent="CFzxhWx38RaiSqSo_Ngo-31" source="CFzxhWx38RaiSqSo_Ngo-32" target="CFzxhWx38RaiSqSo_Ngo-33">
          <mxGeometry relative="1" as="geometry" />
        </mxCell>
        <mxCell id="CFzxhWx38RaiSqSo_Ngo-35" style="edgeStyle=orthogonalEdgeStyle;rounded=0;orthogonalLoop=1;jettySize=auto;html=1;exitX=1;exitY=0.5;exitDx=0;exitDy=0;entryX=0.5;entryY=0;entryDx=0;entryDy=0;" edge="1" parent="CFzxhWx38RaiSqSo_Ngo-1" source="CFzxhWx38RaiSqSo_Ngo-6" target="CFzxhWx38RaiSqSo_Ngo-19">
          <mxGeometry relative="1" as="geometry" />
        </mxCell>
        <mxCell id="CFzxhWx38RaiSqSo_Ngo-36" style="edgeStyle=orthogonalEdgeStyle;rounded=0;orthogonalLoop=1;jettySize=auto;html=1;exitX=0;exitY=0.5;exitDx=0;exitDy=0;entryX=0;entryY=0.5;entryDx=0;entryDy=0;" edge="1" parent="CFzxhWx38RaiSqSo_Ngo-1" source="CFzxhWx38RaiSqSo_Ngo-20" target="CFzxhWx38RaiSqSo_Ngo-6">
          <mxGeometry relative="1" as="geometry" />
        </mxCell>
        <mxCell id="CFzxhWx38RaiSqSo_Ngo-37" style="edgeStyle=orthogonalEdgeStyle;rounded=0;orthogonalLoop=1;jettySize=auto;html=1;entryX=-0.28;entryY=0.497;entryDx=0;entryDy=0;entryPerimeter=0;" edge="1" parent="CFzxhWx38RaiSqSo_Ngo-1" source="CFzxhWx38RaiSqSo_Ngo-23" target="CFzxhWx38RaiSqSo_Ngo-7">
          <mxGeometry relative="1" as="geometry">
            <mxPoint x="550" y="460" as="targetPoint" />
            <Array as="points">
              <mxPoint x="550" y="428" />
              <mxPoint x="550" y="428" />
            </Array>
          </mxGeometry>
        </mxCell>
        <mxCell id="CFzxhWx38RaiSqSo_Ngo-38" value="&lt;span style=&quot;line-height: 107%; font-family: &amp;quot;Times New Roman&amp;quot;, serif;&quot;&gt;&lt;font&gt;Клиент выбирает способ оплаты&amp;nbsp;&lt;/font&gt;&lt;/span&gt;" style="edgeLabel;html=1;align=center;verticalAlign=middle;resizable=0;points=[];" vertex="1" connectable="0" parent="CFzxhWx38RaiSqSo_Ngo-37">
          <mxGeometry x="-0.385" relative="1" as="geometry">
            <mxPoint as="offset" />
          </mxGeometry>
        </mxCell>
        <mxCell id="CFzxhWx38RaiSqSo_Ngo-39" value="" style="edgeStyle=orthogonalEdgeStyle;rounded=0;orthogonalLoop=1;jettySize=auto;html=1;entryX=0.5;entryY=0;entryDx=0;entryDy=0;" edge="1" parent="CFzxhWx38RaiSqSo_Ngo-1" source="CFzxhWx38RaiSqSo_Ngo-8" target="CFzxhWx38RaiSqSo_Ngo-30">
          <mxGeometry relative="1" as="geometry">
            <mxPoint x="387" y="620" as="targetPoint" />
            <Array as="points">
              <mxPoint x="960" y="560" />
            </Array>
          </mxGeometry>
        </mxCell>
        <mxCell id="CFzxhWx38RaiSqSo_Ngo-40" value="Проверка оплаты" style="edgeLabel;html=1;align=center;verticalAlign=middle;resizable=0;points=[];" vertex="1" connectable="0" parent="CFzxhWx38RaiSqSo_Ngo-39">
          <mxGeometry x="-0.3058" y="1" relative="1" as="geometry">
            <mxPoint as="offset" />
          </mxGeometry>
        </mxCell>
        <mxCell id="CFzxhWx38RaiSqSo_Ngo-41" style="edgeStyle=orthogonalEdgeStyle;rounded=0;orthogonalLoop=1;jettySize=auto;html=1;entryX=0.5;entryY=0;entryDx=0;entryDy=0;" edge="1" parent="CFzxhWx38RaiSqSo_Ngo-1" source="CFzxhWx38RaiSqSo_Ngo-30" target="CFzxhWx38RaiSqSo_Ngo-32">
          <mxGeometry relative="1" as="geometry" />
        </mxCell>
        <mxCell id="CFzxhWx38RaiSqSo_Ngo-42" value="Олата прошла" style="edgeLabel;html=1;align=center;verticalAlign=middle;resizable=0;points=[];" vertex="1" connectable="0" parent="CFzxhWx38RaiSqSo_Ngo-41">
          <mxGeometry x="-0.2534" relative="1" as="geometry">
            <mxPoint as="offset" />
          </mxGeometry>
        </mxCell>
        <mxCell id="CFzxhWx38RaiSqSo_Ngo-43" value="&lt;span style=&quot;font-size:12.0pt;line-height:107%;&lt;br/&gt;font-family:&amp;quot;Times New Roman&amp;quot;,serif;mso-fareast-font-family:Calibri;mso-fareast-theme-font:&lt;br/&gt;minor-latin;mso-ansi-language:RU;mso-fareast-language:EN-US;mso-bidi-language:&lt;br/&gt;AR-SA;mso-bidi-font-style:italic&quot;&gt;Курьерская служба&lt;/span&gt;" style="swimlane;whiteSpace=wrap;html=1;" vertex="1" parent="CFzxhWx38RaiSqSo_Ngo-1">
          <mxGeometry x="1600" y="24" width="423" height="1466" as="geometry" />
        </mxCell>
        <mxCell id="CFzxhWx38RaiSqSo_Ngo-44" style="edgeStyle=orthogonalEdgeStyle;rounded=0;orthogonalLoop=1;jettySize=auto;html=1;" edge="1" parent="CFzxhWx38RaiSqSo_Ngo-43" source="CFzxhWx38RaiSqSo_Ngo-45" target="CFzxhWx38RaiSqSo_Ngo-46">
          <mxGeometry relative="1" as="geometry" />
        </mxCell>
        <mxCell id="CFzxhWx38RaiSqSo_Ngo-45" value="&lt;span style=&quot;line-height: 107%; font-family: &amp;quot;Times New Roman&amp;quot;, serif;&quot;&gt;&lt;font style=&quot;font-size: 11px;&quot;&gt;отправить заявку в службу доставки&lt;/font&gt;&lt;/span&gt;" style="shape=rect;rounded=1;html=1;whiteSpace=wrap;align=center;" vertex="1" parent="CFzxhWx38RaiSqSo_Ngo-43">
          <mxGeometry x="70" y="856" width="100" height="40" as="geometry" />
        </mxCell>
        <mxCell id="CFzxhWx38RaiSqSo_Ngo-46" value="&lt;span style=&quot;line-height: 107%; font-family: &amp;quot;Times New Roman&amp;quot;, serif;&quot; lang=&quot;EN-US&quot;&gt;&lt;font&gt;Курьер доставляет&lt;br/&gt;товар клиенту&lt;/font&gt;&lt;/span&gt;" style="shape=rect;rounded=1;html=1;whiteSpace=wrap;align=center;" vertex="1" parent="CFzxhWx38RaiSqSo_Ngo-43">
          <mxGeometry x="70" y="950" width="100" height="40" as="geometry" />
        </mxCell>
        <mxCell id="CFzxhWx38RaiSqSo_Ngo-47" style="edgeStyle=orthogonalEdgeStyle;rounded=0;orthogonalLoop=1;jettySize=auto;html=1;entryX=0.5;entryY=0;entryDx=0;entryDy=0;" edge="1" parent="CFzxhWx38RaiSqSo_Ngo-1" source="CFzxhWx38RaiSqSo_Ngo-30" target="CFzxhWx38RaiSqSo_Ngo-12">
          <mxGeometry relative="1" as="geometry" />
        </mxCell>
        <mxCell id="CFzxhWx38RaiSqSo_Ngo-48" value="Оплата не прошла" style="edgeLabel;html=1;align=center;verticalAlign=middle;resizable=0;points=[];" vertex="1" connectable="0" parent="CFzxhWx38RaiSqSo_Ngo-47">
          <mxGeometry x="-0.3246" y="-1" relative="1" as="geometry">
            <mxPoint as="offset" />
          </mxGeometry>
        </mxCell>
        <mxCell id="CFzxhWx38RaiSqSo_Ngo-49" style="edgeStyle=orthogonalEdgeStyle;rounded=0;orthogonalLoop=1;jettySize=auto;html=1;entryX=0.5;entryY=0;entryDx=0;entryDy=0;" edge="1" parent="CFzxhWx38RaiSqSo_Ngo-1" source="CFzxhWx38RaiSqSo_Ngo-33" target="CFzxhWx38RaiSqSo_Ngo-14">
          <mxGeometry relative="1" as="geometry" />
        </mxCell>
        <mxCell id="CFzxhWx38RaiSqSo_Ngo-50" value="Если самовызов" style="edgeLabel;html=1;align=center;verticalAlign=middle;resizable=0;points=[];" vertex="1" connectable="0" parent="CFzxhWx38RaiSqSo_Ngo-49">
          <mxGeometry x="-0.1505" y="2" relative="1" as="geometry">
            <mxPoint as="offset" />
          </mxGeometry>
        </mxCell>
        <mxCell id="CFzxhWx38RaiSqSo_Ngo-51" style="edgeStyle=orthogonalEdgeStyle;rounded=0;orthogonalLoop=1;jettySize=auto;html=1;" edge="1" parent="CFzxhWx38RaiSqSo_Ngo-1" source="CFzxhWx38RaiSqSo_Ngo-33" target="CFzxhWx38RaiSqSo_Ngo-45">
          <mxGeometry relative="1" as="geometry" />
        </mxCell>
        <mxCell id="CFzxhWx38RaiSqSo_Ngo-52" value="Если курерская служба" style="edgeLabel;html=1;align=center;verticalAlign=middle;resizable=0;points=[];" vertex="1" connectable="0" parent="CFzxhWx38RaiSqSo_Ngo-51">
          <mxGeometry x="-0.3935" y="-2" relative="1" as="geometry">
            <mxPoint as="offset" />
          </mxGeometry>
        </mxCell>
        <mxCell id="CFzxhWx38RaiSqSo_Ngo-53" style="edgeStyle=orthogonalEdgeStyle;rounded=0;orthogonalLoop=1;jettySize=auto;html=1;entryX=0.5;entryY=0;entryDx=0;entryDy=0;" edge="1" parent="CFzxhWx38RaiSqSo_Ngo-1" source="CFzxhWx38RaiSqSo_Ngo-46" target="CFzxhWx38RaiSqSo_Ngo-17">
          <mxGeometry relative="1" as="geometry">
            <Array as="points">
              <mxPoint x="1720" y="1260" />
              <mxPoint x="160" y="1260" />
            </Array>
          </mxGeometry>
        </mxCell>
        <mxCell id="CFzxhWx38RaiSqSo_Ngo-54" style="edgeStyle=orthogonalEdgeStyle;rounded=0;orthogonalLoop=1;jettySize=auto;html=1;entryX=0;entryY=0.5;entryDx=0;entryDy=0;" edge="1" parent="CFzxhWx38RaiSqSo_Ngo-1" source="CFzxhWx38RaiSqSo_Ngo-17" target="CFzxhWx38RaiSqSo_Ngo-27">
          <mxGeometry relative="1" as="geometry" />
        </mxCell>
        <mxCell id="CFzxhWx38RaiSqSo_Ngo-55" style="edgeStyle=orthogonalEdgeStyle;rounded=0;orthogonalLoop=1;jettySize=auto;html=1;entryX=0.5;entryY=0;entryDx=0;entryDy=0;" edge="1" parent="CFzxhWx38RaiSqSo_Ngo-1" source="CFzxhWx38RaiSqSo_Ngo-10" target="CFzxhWx38RaiSqSo_Ngo-27">
          <mxGeometry relative="1" as="geometry" />
        </mxCell>
      </root>
    </mxGraphModel>
  </diagram>
  <diagram id="Z-CcBtB1VZAe6IC_v7HF" name="Лабараторная-2">
    <mxGraphModel dx="2625" dy="1325" grid="1" gridSize="10" guides="1" tooltips="1" connect="1" arrows="1" fold="1" page="1" pageScale="1" pageWidth="827" pageHeight="1169" math="0" shadow="0">
      <root>
        <mxCell id="0" />
        <mxCell id="1" parent="0" />
        <mxCell id="p9niWGtgXDwYj63Y5y_8-1" value="Пользователь" style="shape=umlLifeline;perimeter=lifelinePerimeter;whiteSpace=wrap;container=1;dropTarget=0;collapsible=0;recursiveResize=0;outlineConnect=0;portConstraint=eastwest;newEdgeStyle={&quot;edgeStyle&quot;:&quot;elbowEdgeStyle&quot;,&quot;elbow&quot;:&quot;vertical&quot;,&quot;curved&quot;:0,&quot;rounded&quot;:0};size=65;" vertex="1" parent="1">
          <mxGeometry x="20" y="20" width="150" height="1810" as="geometry" />
        </mxCell>
        <mxCell id="4uzIJ6pL6-DvsaTXG6bH-4" value="" style="shape=umlDestroy;whiteSpace=wrap;html=1;strokeWidth=3;targetShapes=umlLifeline;" vertex="1" parent="p9niWGtgXDwYj63Y5y_8-1">
          <mxGeometry x="60" y="1780" width="30" height="30" as="geometry" />
        </mxCell>
        <mxCell id="p9niWGtgXDwYj63Y5y_8-2" value="Система" style="shape=umlLifeline;perimeter=lifelinePerimeter;whiteSpace=wrap;container=1;dropTarget=0;collapsible=0;recursiveResize=0;outlineConnect=0;portConstraint=eastwest;newEdgeStyle={&quot;edgeStyle&quot;:&quot;elbowEdgeStyle&quot;,&quot;elbow&quot;:&quot;vertical&quot;,&quot;curved&quot;:0,&quot;rounded&quot;:0};size=65;" vertex="1" parent="1">
          <mxGeometry x="344" y="20" width="150" height="1810" as="geometry" />
        </mxCell>
        <mxCell id="4uzIJ6pL6-DvsaTXG6bH-3" value="" style="shape=umlDestroy;whiteSpace=wrap;html=1;strokeWidth=3;targetShapes=umlLifeline;" vertex="1" parent="p9niWGtgXDwYj63Y5y_8-2">
          <mxGeometry x="60" y="1780" width="30" height="30" as="geometry" />
        </mxCell>
        <mxCell id="p9niWGtgXDwYj63Y5y_8-3" value="ПлатежныйШлюз" style="shape=umlLifeline;perimeter=lifelinePerimeter;whiteSpace=wrap;container=1;dropTarget=0;collapsible=0;recursiveResize=0;outlineConnect=0;portConstraint=eastwest;newEdgeStyle={&quot;edgeStyle&quot;:&quot;elbowEdgeStyle&quot;,&quot;elbow&quot;:&quot;vertical&quot;,&quot;curved&quot;:0,&quot;rounded&quot;:0};size=65;" vertex="1" parent="1">
          <mxGeometry x="623" y="20" width="150" height="1810" as="geometry" />
        </mxCell>
        <mxCell id="4uzIJ6pL6-DvsaTXG6bH-2" value="" style="shape=umlDestroy;whiteSpace=wrap;html=1;strokeWidth=3;targetShapes=umlLifeline;" vertex="1" parent="p9niWGtgXDwYj63Y5y_8-3">
          <mxGeometry x="60" y="1780" width="30" height="30" as="geometry" />
        </mxCell>
        <mxCell id="p9niWGtgXDwYj63Y5y_8-4" value="БазаДанных" style="shape=umlLifeline;perimeter=lifelinePerimeter;whiteSpace=wrap;container=1;dropTarget=0;collapsible=0;recursiveResize=0;outlineConnect=0;portConstraint=eastwest;newEdgeStyle={&quot;edgeStyle&quot;:&quot;elbowEdgeStyle&quot;,&quot;elbow&quot;:&quot;vertical&quot;,&quot;curved&quot;:0,&quot;rounded&quot;:0};size=65;" vertex="1" parent="1">
          <mxGeometry x="823" y="20" width="150" height="1810" as="geometry" />
        </mxCell>
        <mxCell id="4uzIJ6pL6-DvsaTXG6bH-1" value="" style="shape=umlDestroy;whiteSpace=wrap;html=1;strokeWidth=3;targetShapes=umlLifeline;" vertex="1" parent="p9niWGtgXDwYj63Y5y_8-4">
          <mxGeometry x="60" y="1780" width="30" height="30" as="geometry" />
        </mxCell>
        <mxCell id="p9niWGtgXDwYj63Y5y_8-5" value="alt" style="shape=umlFrame;pointerEvents=0;dropTarget=0;strokeColor=#000000;height=20;width=30;perimeterSpacing=3;" vertex="1" parent="1">
          <mxGeometry x="84" y="203" width="825" height="256" as="geometry" />
        </mxCell>
        <mxCell id="p9niWGtgXDwYj63Y5y_8-6" value="[Курс доступен]" style="text;strokeColor=none;fillColor=none;align=center;verticalAlign=middle;whiteSpace=wrap;" vertex="1" parent="p9niWGtgXDwYj63Y5y_8-5">
          <mxGeometry x="30" width="795" height="20" as="geometry" />
        </mxCell>
        <mxCell id="p9niWGtgXDwYj63Y5y_8-7" value="[Курс недоступен]" style="shape=line;dashed=1;whiteSpace=wrap;verticalAlign=top;labelPosition=center;verticalLabelPosition=middle;align=center;strokeColor=#B3B3B3;" vertex="1" parent="p9niWGtgXDwYj63Y5y_8-5">
          <mxGeometry y="160" width="825" height="3" as="geometry" />
        </mxCell>
        <mxCell id="p9niWGtgXDwYj63Y5y_8-8" value="alt" style="shape=umlFrame;pointerEvents=0;dropTarget=0;strokeColor=#000000;height=20;width=30;align=center;verticalAlign=middle;fontFamily=Helvetica;fontSize=12;fontColor=default;fillColor=default;" vertex="1" parent="1">
          <mxGeometry x="84" y="678" width="825" height="256" as="geometry" />
        </mxCell>
        <mxCell id="p9niWGtgXDwYj63Y5y_8-9" value="[Платеж успешен]" style="text;strokeColor=none;fillColor=none;align=center;verticalAlign=middle;whiteSpace=wrap;fontFamily=Helvetica;fontSize=12;fontColor=default;" vertex="1" parent="p9niWGtgXDwYj63Y5y_8-8">
          <mxGeometry x="30" width="795" height="20" as="geometry" />
        </mxCell>
        <mxCell id="p9niWGtgXDwYj63Y5y_8-10" value="[Платеж отклонен]" style="shape=line;dashed=1;whiteSpace=wrap;verticalAlign=middle;labelPosition=center;verticalLabelPosition=middle;align=center;strokeColor=#000000;pointerEvents=0;fontFamily=Helvetica;fontSize=12;fontColor=default;fillColor=default;" vertex="1" parent="p9niWGtgXDwYj63Y5y_8-8">
          <mxGeometry y="160" width="825" height="3" as="geometry" />
        </mxCell>
        <mxCell id="p9niWGtgXDwYj63Y5y_8-11" value="alt" style="shape=umlFrame;pointerEvents=0;dropTarget=0;strokeColor=#000000;height=20;width=30;align=center;verticalAlign=middle;fontFamily=Helvetica;fontSize=12;fontColor=default;fillColor=default;" vertex="1" parent="1">
          <mxGeometry x="74" y="523" width="845" height="576" as="geometry" />
        </mxCell>
        <mxCell id="p9niWGtgXDwYj63Y5y_8-12" value="[Онлайн оплата]" style="text;strokeColor=none;fillColor=none;align=center;verticalAlign=middle;whiteSpace=wrap;fontFamily=Helvetica;fontSize=12;fontColor=default;" vertex="1" parent="p9niWGtgXDwYj63Y5y_8-11">
          <mxGeometry x="30" width="815" height="20" as="geometry" />
        </mxCell>
        <mxCell id="p9niWGtgXDwYj63Y5y_8-13" value="[Оплата через банк]" style="shape=line;dashed=1;whiteSpace=wrap;verticalAlign=middle;labelPosition=center;verticalLabelPosition=middle;align=center;strokeColor=#000000;pointerEvents=0;fontFamily=Helvetica;fontSize=12;fontColor=default;fillColor=default;" vertex="1" parent="p9niWGtgXDwYj63Y5y_8-11">
          <mxGeometry y="426" width="845" height="3" as="geometry" />
        </mxCell>
        <mxCell id="p9niWGtgXDwYj63Y5y_8-14" value="loop" style="shape=umlFrame;pointerEvents=0;dropTarget=0;strokeColor=#000000;height=20;width=40;align=center;verticalAlign=middle;fontFamily=Helvetica;fontSize=12;fontColor=default;fillColor=default;" vertex="1" parent="1">
          <mxGeometry x="84" y="1163" width="346" height="101" as="geometry" />
        </mxCell>
        <mxCell id="p9niWGtgXDwYj63Y5y_8-15" value="[Выполнение заданий]" style="text;strokeColor=none;fillColor=none;align=center;verticalAlign=middle;whiteSpace=wrap;fontFamily=Helvetica;fontSize=12;fontColor=default;" vertex="1" parent="p9niWGtgXDwYj63Y5y_8-14">
          <mxGeometry x="40" width="306" height="20" as="geometry" />
        </mxCell>
        <mxCell id="p9niWGtgXDwYj63Y5y_8-16" value="alt" style="shape=umlFrame;pointerEvents=0;dropTarget=0;strokeColor=#000000;height=20;width=30;align=center;verticalAlign=middle;fontFamily=Helvetica;fontSize=12;fontColor=default;fillColor=default;" vertex="1" parent="1">
          <mxGeometry x="84" y="1358" width="825" height="256" as="geometry" />
        </mxCell>
        <mxCell id="p9niWGtgXDwYj63Y5y_8-17" value="[Результаты удовлетворительные]" style="text;strokeColor=none;fillColor=none;align=center;verticalAlign=middle;whiteSpace=wrap;fontFamily=Helvetica;fontSize=12;fontColor=default;" vertex="1" parent="p9niWGtgXDwYj63Y5y_8-16">
          <mxGeometry x="30" width="795" height="20" as="geometry" />
        </mxCell>
        <mxCell id="p9niWGtgXDwYj63Y5y_8-18" value="[Результаты неудовлетворительные]" style="shape=line;dashed=1;whiteSpace=wrap;verticalAlign=middle;labelPosition=center;verticalLabelPosition=middle;align=center;strokeColor=#000000;pointerEvents=0;fontFamily=Helvetica;fontSize=12;fontColor=default;fillColor=default;" vertex="1" parent="p9niWGtgXDwYj63Y5y_8-16">
          <mxGeometry y="160" width="825" height="3" as="geometry" />
        </mxCell>
        <mxCell id="p9niWGtgXDwYj63Y5y_8-19" value="Выбор курса" style="verticalAlign=bottom;edgeStyle=elbowEdgeStyle;elbow=vertical;curved=0;rounded=0;endArrow=block;" edge="1" parent="1" source="p9niWGtgXDwYj63Y5y_8-1" target="p9niWGtgXDwYj63Y5y_8-2">
          <mxGeometry relative="1" as="geometry">
            <Array as="points">
              <mxPoint x="266" y="129" />
            </Array>
          </mxGeometry>
        </mxCell>
        <mxCell id="p9niWGtgXDwYj63Y5y_8-20" value="Проверка доступности курса" style="verticalAlign=bottom;edgeStyle=elbowEdgeStyle;elbow=vertical;curved=0;rounded=0;dashed=1;dashPattern=2 3;endArrow=block;" edge="1" parent="1" source="p9niWGtgXDwYj63Y5y_8-2" target="p9niWGtgXDwYj63Y5y_8-1">
          <mxGeometry relative="1" as="geometry">
            <Array as="points">
              <mxPoint x="269" y="183" />
            </Array>
          </mxGeometry>
        </mxCell>
        <mxCell id="p9niWGtgXDwYj63Y5y_8-21" value="Добавить в список участников" style="verticalAlign=bottom;edgeStyle=elbowEdgeStyle;elbow=vertical;curved=0;rounded=0;endArrow=block;" edge="1" parent="1" source="p9niWGtgXDwYj63Y5y_8-2" target="p9niWGtgXDwYj63Y5y_8-4">
          <mxGeometry relative="1" as="geometry">
            <Array as="points">
              <mxPoint x="667" y="284" />
            </Array>
          </mxGeometry>
        </mxCell>
        <mxCell id="p9niWGtgXDwYj63Y5y_8-22" value="Регистрация успешна" style="verticalAlign=bottom;edgeStyle=elbowEdgeStyle;elbow=vertical;curved=0;rounded=0;dashed=1;dashPattern=2 3;endArrow=block;" edge="1" parent="1" source="p9niWGtgXDwYj63Y5y_8-2" target="p9niWGtgXDwYj63Y5y_8-1">
          <mxGeometry relative="1" as="geometry">
            <Array as="points">
              <mxPoint x="269" y="338" />
            </Array>
          </mxGeometry>
        </mxCell>
        <mxCell id="p9niWGtgXDwYj63Y5y_8-23" value="Уведомление о недоступности" style="verticalAlign=bottom;edgeStyle=elbowEdgeStyle;elbow=vertical;curved=0;rounded=0;dashed=1;dashPattern=2 3;endArrow=block;" edge="1" parent="1" source="p9niWGtgXDwYj63Y5y_8-2" target="p9niWGtgXDwYj63Y5y_8-1">
          <mxGeometry relative="1" as="geometry">
            <Array as="points">
              <mxPoint x="269" y="439" />
            </Array>
          </mxGeometry>
        </mxCell>
        <mxCell id="p9niWGtgXDwYj63Y5y_8-24" value="Выбор способа оплаты" style="verticalAlign=bottom;edgeStyle=elbowEdgeStyle;elbow=vertical;curved=0;rounded=0;endArrow=block;" edge="1" parent="1" source="p9niWGtgXDwYj63Y5y_8-1" target="p9niWGtgXDwYj63Y5y_8-2">
          <mxGeometry relative="1" as="geometry">
            <Array as="points">
              <mxPoint x="266" y="503" />
            </Array>
          </mxGeometry>
        </mxCell>
        <mxCell id="p9niWGtgXDwYj63Y5y_8-25" value="Отправить запрос на оплату" style="verticalAlign=bottom;edgeStyle=elbowEdgeStyle;elbow=vertical;curved=0;rounded=0;endArrow=block;" edge="1" parent="1" source="p9niWGtgXDwYj63Y5y_8-2" target="p9niWGtgXDwYj63Y5y_8-3">
          <mxGeometry relative="1" as="geometry">
            <Array as="points">
              <mxPoint x="567" y="604" />
            </Array>
          </mxGeometry>
        </mxCell>
        <mxCell id="p9niWGtgXDwYj63Y5y_8-26" value="Результат оплаты" style="verticalAlign=bottom;edgeStyle=elbowEdgeStyle;elbow=vertical;curved=0;rounded=0;dashed=1;dashPattern=2 3;endArrow=block;" edge="1" parent="1" source="p9niWGtgXDwYj63Y5y_8-3" target="p9niWGtgXDwYj63Y5y_8-2">
          <mxGeometry relative="1" as="geometry">
            <Array as="points">
              <mxPoint x="570" y="658" />
            </Array>
          </mxGeometry>
        </mxCell>
        <mxCell id="p9niWGtgXDwYj63Y5y_8-27" value="Активировать доступ к курсу" style="verticalAlign=bottom;edgeStyle=elbowEdgeStyle;elbow=vertical;curved=0;rounded=0;endArrow=block;" edge="1" parent="1" source="p9niWGtgXDwYj63Y5y_8-2" target="p9niWGtgXDwYj63Y5y_8-4">
          <mxGeometry relative="1" as="geometry">
            <Array as="points">
              <mxPoint x="667" y="759" />
            </Array>
          </mxGeometry>
        </mxCell>
        <mxCell id="p9niWGtgXDwYj63Y5y_8-28" value="Доступ активирован" style="verticalAlign=bottom;edgeStyle=elbowEdgeStyle;elbow=vertical;curved=0;rounded=0;dashed=1;dashPattern=2 3;endArrow=block;" edge="1" parent="1" source="p9niWGtgXDwYj63Y5y_8-2" target="p9niWGtgXDwYj63Y5y_8-1">
          <mxGeometry relative="1" as="geometry">
            <Array as="points">
              <mxPoint x="269" y="813" />
            </Array>
          </mxGeometry>
        </mxCell>
        <mxCell id="p9niWGtgXDwYj63Y5y_8-29" value="Уведомление о повторной оплате" style="verticalAlign=bottom;edgeStyle=elbowEdgeStyle;elbow=vertical;curved=0;rounded=0;dashed=1;dashPattern=2 3;endArrow=block;" edge="1" parent="1" source="p9niWGtgXDwYj63Y5y_8-2" target="p9niWGtgXDwYj63Y5y_8-1">
          <mxGeometry relative="1" as="geometry">
            <Array as="points">
              <mxPoint x="269" y="914" />
            </Array>
          </mxGeometry>
        </mxCell>
        <mxCell id="p9niWGtgXDwYj63Y5y_8-30" value="Уведомление об успешной оплате" style="verticalAlign=bottom;edgeStyle=elbowEdgeStyle;elbow=vertical;curved=0;rounded=0;dashed=1;dashPattern=2 3;endArrow=block;" edge="1" parent="1" source="p9niWGtgXDwYj63Y5y_8-2" target="p9niWGtgXDwYj63Y5y_8-1">
          <mxGeometry relative="1" as="geometry">
            <Array as="points">
              <mxPoint x="269" y="1025" />
            </Array>
          </mxGeometry>
        </mxCell>
        <mxCell id="p9niWGtgXDwYj63Y5y_8-31" value="Активировать доступ к курсу" style="verticalAlign=bottom;edgeStyle=elbowEdgeStyle;elbow=vertical;curved=0;rounded=0;endArrow=block;" edge="1" parent="1" source="p9niWGtgXDwYj63Y5y_8-2" target="p9niWGtgXDwYj63Y5y_8-4">
          <mxGeometry relative="1" as="geometry">
            <Array as="points">
              <mxPoint x="667" y="1079" />
            </Array>
          </mxGeometry>
        </mxCell>
        <mxCell id="p9niWGtgXDwYj63Y5y_8-32" value="Начало обучения" style="verticalAlign=bottom;edgeStyle=elbowEdgeStyle;elbow=vertical;curved=0;rounded=0;endArrow=block;" edge="1" parent="1" source="p9niWGtgXDwYj63Y5y_8-1" target="p9niWGtgXDwYj63Y5y_8-2">
          <mxGeometry relative="1" as="geometry">
            <Array as="points">
              <mxPoint x="266" y="1143" />
            </Array>
          </mxGeometry>
        </mxCell>
        <mxCell id="p9niWGtgXDwYj63Y5y_8-33" value="Завершение модуля" style="verticalAlign=bottom;edgeStyle=elbowEdgeStyle;elbow=vertical;curved=0;rounded=0;endArrow=block;" edge="1" parent="1" source="p9niWGtgXDwYj63Y5y_8-1" target="p9niWGtgXDwYj63Y5y_8-2">
          <mxGeometry relative="1" as="geometry">
            <Array as="points">
              <mxPoint x="266" y="1244" />
            </Array>
          </mxGeometry>
        </mxCell>
        <mxCell id="p9niWGtgXDwYj63Y5y_8-34" value="Проверка результатов" style="curved=1;endArrow=block;rounded=0;" edge="1" parent="1" source="p9niWGtgXDwYj63Y5y_8-2" target="p9niWGtgXDwYj63Y5y_8-2">
          <mxGeometry relative="1" as="geometry">
            <Array as="points">
              <mxPoint x="470" y="1308" />
              <mxPoint x="470" y="1338" />
            </Array>
          </mxGeometry>
        </mxCell>
        <mxCell id="p9niWGtgXDwYj63Y5y_8-35" value="Сохранить успешное завершение" style="verticalAlign=bottom;edgeStyle=elbowEdgeStyle;elbow=vertical;curved=0;rounded=0;endArrow=block;" edge="1" parent="1" source="p9niWGtgXDwYj63Y5y_8-2" target="p9niWGtgXDwYj63Y5y_8-4">
          <mxGeometry relative="1" as="geometry">
            <Array as="points">
              <mxPoint x="667" y="1439" />
            </Array>
          </mxGeometry>
        </mxCell>
        <mxCell id="p9niWGtgXDwYj63Y5y_8-36" value="Выдача сертификата" style="verticalAlign=bottom;edgeStyle=elbowEdgeStyle;elbow=vertical;curved=0;rounded=0;dashed=1;dashPattern=2 3;endArrow=block;" edge="1" parent="1" source="p9niWGtgXDwYj63Y5y_8-2" target="p9niWGtgXDwYj63Y5y_8-1">
          <mxGeometry relative="1" as="geometry">
            <Array as="points">
              <mxPoint x="269" y="1493" />
            </Array>
          </mxGeometry>
        </mxCell>
        <mxCell id="p9niWGtgXDwYj63Y5y_8-37" value="Уведомление о пересдаче тестов" style="verticalAlign=bottom;edgeStyle=elbowEdgeStyle;elbow=vertical;curved=0;rounded=0;dashed=1;dashPattern=2 3;endArrow=block;" edge="1" parent="1" source="p9niWGtgXDwYj63Y5y_8-2" target="p9niWGtgXDwYj63Y5y_8-1">
          <mxGeometry relative="1" as="geometry">
            <Array as="points">
              <mxPoint x="269" y="1594" />
            </Array>
          </mxGeometry>
        </mxCell>
        <mxCell id="p9niWGtgXDwYj63Y5y_8-38" value="Скачивание сертификата" style="verticalAlign=bottom;edgeStyle=elbowEdgeStyle;elbow=vertical;curved=0;rounded=0;endArrow=block;" edge="1" parent="1" source="p9niWGtgXDwYj63Y5y_8-1" target="p9niWGtgXDwYj63Y5y_8-2">
          <mxGeometry relative="1" as="geometry">
            <Array as="points">
              <mxPoint x="266" y="1658" />
            </Array>
          </mxGeometry>
        </mxCell>
        <mxCell id="p9niWGtgXDwYj63Y5y_8-39" value="Сертификат успешно скачан" style="verticalAlign=bottom;edgeStyle=elbowEdgeStyle;elbow=vertical;curved=0;rounded=0;dashed=1;dashPattern=2 3;endArrow=block;" edge="1" parent="1" source="p9niWGtgXDwYj63Y5y_8-2" target="p9niWGtgXDwYj63Y5y_8-1">
          <mxGeometry relative="1" as="geometry">
            <Array as="points">
              <mxPoint x="269" y="1712" />
            </Array>
          </mxGeometry>
        </mxCell>
      </root>
    </mxGraphModel>
  </diagram>
</mxfile>
